<?xml version="1.0" encoding="utf-8" standalone="no"?>
<svg xmlns="http://www.w3.org/2000/svg" viewBox="0 0 800 400" version="1.1">
<polyline points="50.0,350.0
 107.66495507535569,311.4320200051978
 109.9285870301608,299.7851203757261
 111.88642783365852,303.3459386776235
 122.05139216419433,303.7558954638978
 124.50160855030562,322.9041542554871
 137.84109966348166,322.9044527197271
 212.13798362943743,286.19698438442214
 217.0565565547037,50.0
 230.17188720526883,50.0
 231.3108296713671,75.04945130390064
 250.86073175156136,75.1887332904497
 257.3186262351038,105.05917715309548
 261.534916092537,113.24548613835307
 272.3490387569923,113.24548613835307
 278.73955552922973,135.07700331487143
 306.95008496255355,194.3393640054625
 309.006400882574,340.27934512727643
 311.78443574868857,340.27911346558415
 353.87218226041114,340.2796767011918
 360.7045413317834,280.2617976461129
 367.5096901735902,293.7221845540437
 369.7098315927425,316.5174176045074
 390.56971186773245,317.6475687124792
 459.49192763189563,331.8422520879167
 463.2093632806283,317.2228510769495
 468.2082711693736,322.4567880114213
 473.90298349986494,322.4567880114213
 479.45516605644184,298.41519771967967
 486.95611933999464,298.41519771967967
 502.6719705018899,252.42771641656506
 510.15348790718167,169.04172156714253
 517.9226563107371,137.48555334708158
 529.1008777612831,137.48555334708158
 529.4196261647644,73.51387760151272
 542.4066800188066,70.97175542448423
 548.9708239701761,67.45435480682204
 551.852516853683,86.27976931797593
 555.0244521858884,86.87891930078047
 651.2968358390191,108.45178146602944
 653.5306661138238,274.3869023278368
 663.9184951817532,276.62443701610573
 747.8892636208485,298.48981409778514
 749.9999999999999,348.9668544090917
 749.9999999999999,350 50.0,350" style="fill:none;stroke:red;stroke-width:2" />
<line x1="50" y1="50" x2="50" y2="350" style="stroke:black;stroke-width:1"/>
<line x1="50" y1="350" x2="750" y2="350" style="stroke:black;stroke-width:1"/>
</svg>